<mxfile host="app.diagrams.net" agent="Mozilla/5.0 (Windows NT 10.0; Win64; x64) AppleWebKit/537.36 (KHTML, like Gecko) Chrome/131.0.0.0 Safari/537.36" version="26.0.5">
  <diagram name="Page-1" id="n0Efe1gRsSFS0HAex0O-">
    <mxGraphModel dx="1195" dy="615" grid="1" gridSize="10" guides="1" tooltips="1" connect="1" arrows="1" fold="1" page="1" pageScale="1" pageWidth="850" pageHeight="1100" math="0" shadow="0">
      <root>
        <mxCell id="0" />
        <mxCell id="1" parent="0" />
        <mxCell id="RKUR9SDJ41hWPvB13vzT-1" value="Base Model 1B&lt;br&gt;16bit" style="ellipse;whiteSpace=wrap;html=1;aspect=fixed;" vertex="1" parent="1">
          <mxGeometry x="210" y="240" width="80" height="80" as="geometry" />
        </mxCell>
        <mxCell id="RKUR9SDJ41hWPvB13vzT-2" value="Data" style="shape=cylinder3;whiteSpace=wrap;html=1;boundedLbl=1;backgroundOutline=1;size=15;" vertex="1" parent="1">
          <mxGeometry x="70" y="320" width="60" height="80" as="geometry" />
        </mxCell>
        <mxCell id="RKUR9SDJ41hWPvB13vzT-3" value="" style="endArrow=classic;html=1;rounded=0;" edge="1" parent="1" source="RKUR9SDJ41hWPvB13vzT-2" target="RKUR9SDJ41hWPvB13vzT-1">
          <mxGeometry width="50" height="50" relative="1" as="geometry">
            <mxPoint x="330" y="410" as="sourcePoint" />
            <mxPoint x="190" y="360" as="targetPoint" />
          </mxGeometry>
        </mxCell>
        <mxCell id="RKUR9SDJ41hWPvB13vzT-4" value="Base Model&lt;div&gt;7B&lt;/div&gt;&lt;div&gt;32bit&lt;/div&gt;" style="ellipse;whiteSpace=wrap;html=1;aspect=fixed;" vertex="1" parent="1">
          <mxGeometry x="210" y="400" width="80" height="80" as="geometry" />
        </mxCell>
        <mxCell id="RKUR9SDJ41hWPvB13vzT-5" value="" style="endArrow=classic;html=1;rounded=0;" edge="1" parent="1" source="RKUR9SDJ41hWPvB13vzT-2" target="RKUR9SDJ41hWPvB13vzT-4">
          <mxGeometry width="50" height="50" relative="1" as="geometry">
            <mxPoint x="140" y="370" as="sourcePoint" />
            <mxPoint x="210" y="370" as="targetPoint" />
          </mxGeometry>
        </mxCell>
        <mxCell id="RKUR9SDJ41hWPvB13vzT-6" value="Training" style="text;html=1;align=center;verticalAlign=middle;whiteSpace=wrap;rounded=0;" vertex="1" parent="1">
          <mxGeometry x="150" y="340" width="60" height="30" as="geometry" />
        </mxCell>
        <mxCell id="RKUR9SDJ41hWPvB13vzT-7" value="" style="endArrow=classic;html=1;rounded=0;exitX=0;exitY=1;exitDx=0;exitDy=0;entryX=1;entryY=1;entryDx=0;entryDy=0;" edge="1" parent="1" source="RKUR9SDJ41hWPvB13vzT-6" target="RKUR9SDJ41hWPvB13vzT-6">
          <mxGeometry width="50" height="50" relative="1" as="geometry">
            <mxPoint x="140" y="386" as="sourcePoint" />
            <mxPoint x="200" y="370" as="targetPoint" />
          </mxGeometry>
        </mxCell>
        <mxCell id="RKUR9SDJ41hWPvB13vzT-8" value="Model 1B&lt;div&gt;4bit&lt;br&gt;&lt;div&gt;&lt;br&gt;&lt;/div&gt;&lt;/div&gt;" style="ellipse;whiteSpace=wrap;html=1;aspect=fixed;" vertex="1" parent="1">
          <mxGeometry x="370" y="240" width="80" height="80" as="geometry" />
        </mxCell>
        <mxCell id="RKUR9SDJ41hWPvB13vzT-9" value="" style="endArrow=classic;html=1;rounded=0;exitX=1;exitY=0.5;exitDx=0;exitDy=0;entryX=0;entryY=0.5;entryDx=0;entryDy=0;" edge="1" parent="1" source="RKUR9SDJ41hWPvB13vzT-1" target="RKUR9SDJ41hWPvB13vzT-8">
          <mxGeometry width="50" height="50" relative="1" as="geometry">
            <mxPoint x="140" y="354" as="sourcePoint" />
            <mxPoint x="225" y="309" as="targetPoint" />
          </mxGeometry>
        </mxCell>
        <mxCell id="RKUR9SDJ41hWPvB13vzT-10" value="Fine-Tuning" style="text;html=1;align=center;verticalAlign=middle;whiteSpace=wrap;rounded=0;" vertex="1" parent="1">
          <mxGeometry x="290" y="340" width="75" height="30" as="geometry" />
        </mxCell>
        <mxCell id="RKUR9SDJ41hWPvB13vzT-11" value="" style="endArrow=classic;html=1;rounded=0;exitX=0;exitY=1;exitDx=0;exitDy=0;entryX=1;entryY=1;entryDx=0;entryDy=0;" edge="1" parent="1" source="RKUR9SDJ41hWPvB13vzT-10" target="RKUR9SDJ41hWPvB13vzT-10">
          <mxGeometry width="50" height="50" relative="1" as="geometry">
            <mxPoint x="160" y="380" as="sourcePoint" />
            <mxPoint x="220" y="380" as="targetPoint" />
          </mxGeometry>
        </mxCell>
        <mxCell id="RKUR9SDJ41hWPvB13vzT-12" value="Base Model&lt;div&gt;7B&lt;/div&gt;&lt;div&gt;8bit&lt;/div&gt;" style="ellipse;whiteSpace=wrap;html=1;aspect=fixed;" vertex="1" parent="1">
          <mxGeometry x="370" y="400" width="80" height="80" as="geometry" />
        </mxCell>
        <mxCell id="RKUR9SDJ41hWPvB13vzT-13" value="" style="endArrow=classic;html=1;rounded=0;exitX=1;exitY=0.5;exitDx=0;exitDy=0;entryX=0;entryY=0.5;entryDx=0;entryDy=0;" edge="1" parent="1" source="RKUR9SDJ41hWPvB13vzT-4" target="RKUR9SDJ41hWPvB13vzT-12">
          <mxGeometry width="50" height="50" relative="1" as="geometry">
            <mxPoint x="300" y="290" as="sourcePoint" />
            <mxPoint x="380" y="290" as="targetPoint" />
          </mxGeometry>
        </mxCell>
        <mxCell id="RKUR9SDJ41hWPvB13vzT-15" value="&lt;font style=&quot;font-size: 8px;&quot;&gt;quanitization&lt;br&gt;LoRA&lt;br&gt;distillation&lt;/font&gt;" style="text;html=1;align=center;verticalAlign=middle;whiteSpace=wrap;rounded=0;" vertex="1" parent="1">
          <mxGeometry x="290" y="240" width="75" height="30" as="geometry" />
        </mxCell>
        <mxCell id="RKUR9SDJ41hWPvB13vzT-18" value="Model Host" style="shape=hexagon;perimeter=hexagonPerimeter2;whiteSpace=wrap;html=1;fixedSize=1;" vertex="1" parent="1">
          <mxGeometry x="560" y="320" width="120" height="80" as="geometry" />
        </mxCell>
        <mxCell id="RKUR9SDJ41hWPvB13vzT-19" value="Publishing" style="text;html=1;align=center;verticalAlign=middle;whiteSpace=wrap;rounded=0;" vertex="1" parent="1">
          <mxGeometry x="450" y="340" width="80" height="30" as="geometry" />
        </mxCell>
        <mxCell id="RKUR9SDJ41hWPvB13vzT-20" value="" style="endArrow=classic;html=1;rounded=0;exitX=0;exitY=1;exitDx=0;exitDy=0;entryX=1;entryY=1;entryDx=0;entryDy=0;" edge="1" parent="1" source="RKUR9SDJ41hWPvB13vzT-19" target="RKUR9SDJ41hWPvB13vzT-19">
          <mxGeometry width="50" height="50" relative="1" as="geometry">
            <mxPoint x="300" y="380" as="sourcePoint" />
            <mxPoint x="510" y="370" as="targetPoint" />
          </mxGeometry>
        </mxCell>
        <mxCell id="RKUR9SDJ41hWPvB13vzT-21" value="&lt;span style=&quot;font-size: 8px;&quot;&gt;ONNX&lt;/span&gt;&lt;div&gt;&lt;span style=&quot;font-size: 8px;&quot;&gt;GGUF&lt;/span&gt;&lt;/div&gt;" style="text;html=1;align=center;verticalAlign=middle;whiteSpace=wrap;rounded=0;" vertex="1" parent="1">
          <mxGeometry x="680" y="340" width="75" height="30" as="geometry" />
        </mxCell>
        <mxCell id="RKUR9SDJ41hWPvB13vzT-22" value="" style="endArrow=classic;html=1;rounded=0;" edge="1" parent="1" source="RKUR9SDJ41hWPvB13vzT-8" target="RKUR9SDJ41hWPvB13vzT-18">
          <mxGeometry width="50" height="50" relative="1" as="geometry">
            <mxPoint x="300" y="290" as="sourcePoint" />
            <mxPoint x="380" y="290" as="targetPoint" />
          </mxGeometry>
        </mxCell>
        <mxCell id="RKUR9SDJ41hWPvB13vzT-23" value="" style="endArrow=classic;html=1;rounded=0;" edge="1" parent="1" source="RKUR9SDJ41hWPvB13vzT-12" target="RKUR9SDJ41hWPvB13vzT-18">
          <mxGeometry width="50" height="50" relative="1" as="geometry">
            <mxPoint x="460" y="290" as="sourcePoint" />
            <mxPoint x="581" y="347" as="targetPoint" />
          </mxGeometry>
        </mxCell>
        <mxCell id="RKUR9SDJ41hWPvB13vzT-24" value="Model Runtime" style="rounded=1;whiteSpace=wrap;html=1;" vertex="1" parent="1">
          <mxGeometry x="560" y="470" width="120" height="60" as="geometry" />
        </mxCell>
        <mxCell id="RKUR9SDJ41hWPvB13vzT-25" value="" style="endArrow=classic;html=1;rounded=0;" edge="1" parent="1" source="RKUR9SDJ41hWPvB13vzT-24" target="RKUR9SDJ41hWPvB13vzT-18">
          <mxGeometry width="50" height="50" relative="1" as="geometry">
            <mxPoint x="700" y="440" as="sourcePoint" />
            <mxPoint x="710" y="430" as="targetPoint" />
          </mxGeometry>
        </mxCell>
        <mxCell id="RKUR9SDJ41hWPvB13vzT-27" value="&lt;span style=&quot;font-size: 8px;&quot;&gt;pull&lt;/span&gt;" style="text;html=1;align=center;verticalAlign=middle;whiteSpace=wrap;rounded=0;" vertex="1" parent="1">
          <mxGeometry x="605" y="425" width="75" height="30" as="geometry" />
        </mxCell>
        <mxCell id="RKUR9SDJ41hWPvB13vzT-29" value="Inference" style="text;html=1;align=center;verticalAlign=middle;whiteSpace=wrap;rounded=0;" vertex="1" parent="1">
          <mxGeometry x="580" y="535" width="80" height="30" as="geometry" />
        </mxCell>
      </root>
    </mxGraphModel>
  </diagram>
</mxfile>
